<mxfile host="app.diagrams.net" modified="2021-11-29T05:48:22.145Z" agent="5.0 (Windows NT 10.0; Win64; x64) AppleWebKit/537.36 (KHTML, like Gecko) Chrome/96.0.4664.45 Safari/537.36" etag="GMfktYFnPmkIjpREGmNm" version="15.7.3" type="github" pages="3">
  <diagram name="UML" id="c4acf3e9-155e-7222-9cf6-157b1a14988f">
    <mxGraphModel dx="2340" dy="1354" grid="1" gridSize="10" guides="1" tooltips="1" connect="1" arrows="1" fold="1" page="1" pageScale="1" pageWidth="850" pageHeight="1100" background="none" math="0" shadow="0">
      <root>
        <mxCell id="0" />
        <mxCell id="1" parent="0" />
        <mxCell id="c88SSMdFqxS7zkuwPy9e-8" style="rounded=0;orthogonalLoop=1;jettySize=auto;html=1;exitX=0.5;exitY=0;exitDx=0;exitDy=0;dashed=1;startArrow=none;startFill=0;endArrow=block;endFill=0;edgeStyle=orthogonalEdgeStyle;entryX=0;entryY=0.5;entryDx=0;entryDy=0;" parent="1" source="17acba5748e5396b-20" target="5d2195bd80daf111-18" edge="1">
          <mxGeometry relative="1" as="geometry">
            <mxPoint x="313" y="300" as="targetPoint" />
          </mxGeometry>
        </mxCell>
        <mxCell id="cg3J0_zzSuhIZT6PAa9S-1" style="edgeStyle=orthogonalEdgeStyle;rounded=0;orthogonalLoop=1;jettySize=auto;html=1;dashed=1;startArrow=none;startFill=0;endArrow=openThin;endFill=0;entryX=0;entryY=0.5;entryDx=0;entryDy=0;" parent="1" target="xKzsLAUPRiaMBI0JEoiN-8" edge="1">
          <mxGeometry relative="1" as="geometry">
            <mxPoint x="383" y="880" as="targetPoint" />
            <mxPoint x="223" y="670" as="sourcePoint" />
            <Array as="points">
              <mxPoint x="223" y="1320" />
            </Array>
          </mxGeometry>
        </mxCell>
        <mxCell id="cg3J0_zzSuhIZT6PAa9S-8" style="edgeStyle=orthogonalEdgeStyle;rounded=0;orthogonalLoop=1;jettySize=auto;html=1;exitX=0.75;exitY=1;exitDx=0;exitDy=0;entryX=0;entryY=0.5;entryDx=0;entryDy=0;dashed=1;startArrow=none;startFill=0;endArrow=openThin;endFill=0;" parent="1" source="17acba5748e5396b-20" target="t8KdcwunpLMHz8m_v9fA-8" edge="1">
          <mxGeometry relative="1" as="geometry">
            <Array as="points">
              <mxPoint x="272" y="690" />
              <mxPoint x="600" y="690" />
              <mxPoint x="600" y="621" />
            </Array>
          </mxGeometry>
        </mxCell>
        <mxCell id="17acba5748e5396b-20" value="CarDao" style="swimlane;html=1;fontStyle=0;childLayout=stackLayout;horizontal=1;startSize=26;fillColor=none;horizontalStack=0;resizeParent=1;resizeLast=0;collapsible=1;marginBottom=0;swimlaneFillColor=#ffffff;rounded=0;shadow=0;comic=0;labelBackgroundColor=none;strokeWidth=1;fontFamily=Verdana;fontSize=10;align=center;" parent="1" vertex="1">
          <mxGeometry x="144" y="510" width="170" height="160" as="geometry" />
        </mxCell>
        <mxCell id="17acba5748e5396b-21" value="+ insert(CarVO, v): void" style="text;html=1;strokeColor=none;fillColor=none;align=left;verticalAlign=top;spacingLeft=4;spacingRight=4;whiteSpace=wrap;overflow=hidden;rotatable=0;points=[[0,0.5],[1,0.5]];portConstraint=eastwest;" parent="17acba5748e5396b-20" vertex="1">
          <mxGeometry y="26" width="170" height="26" as="geometry" />
        </mxCell>
        <mxCell id="17acba5748e5396b-24" value="&lt;span&gt;+ delete(String, k):&amp;nbsp;void&lt;/span&gt;" style="text;html=1;strokeColor=none;fillColor=none;align=left;verticalAlign=top;spacingLeft=4;spacingRight=4;whiteSpace=wrap;overflow=hidden;rotatable=0;points=[[0,0.5],[1,0.5]];portConstraint=eastwest;" parent="17acba5748e5396b-20" vertex="1">
          <mxGeometry y="52" width="170" height="26" as="geometry" />
        </mxCell>
        <mxCell id="17acba5748e5396b-26" value="+&amp;nbsp;&lt;span&gt;update(CarVO, v):&amp;nbsp;void&lt;/span&gt;" style="text;html=1;strokeColor=none;fillColor=none;align=left;verticalAlign=top;spacingLeft=4;spacingRight=4;whiteSpace=wrap;overflow=hidden;rotatable=0;points=[[0,0.5],[1,0.5]];portConstraint=eastwest;" parent="17acba5748e5396b-20" vertex="1">
          <mxGeometry y="78" width="170" height="26" as="geometry" />
        </mxCell>
        <mxCell id="t8KdcwunpLMHz8m_v9fA-18" value="+&amp;nbsp;&lt;span&gt;select(String, k): CarVO&lt;br&gt;&lt;br&gt;&lt;/span&gt;" style="text;html=1;strokeColor=none;fillColor=none;align=left;verticalAlign=top;spacingLeft=4;spacingRight=4;whiteSpace=wrap;overflow=hidden;rotatable=0;points=[[0,0.5],[1,0.5]];portConstraint=eastwest;" parent="17acba5748e5396b-20" vertex="1">
          <mxGeometry y="104" width="170" height="26" as="geometry" />
        </mxCell>
        <mxCell id="t8KdcwunpLMHz8m_v9fA-19" value="+&amp;nbsp;&lt;span&gt;select():&amp;nbsp;ArrayList&amp;lt;CarVO&amp;gt;&lt;/span&gt;&lt;span&gt;&lt;br&gt;&lt;br&gt;&lt;/span&gt;" style="text;html=1;strokeColor=none;fillColor=none;align=left;verticalAlign=top;spacingLeft=4;spacingRight=4;whiteSpace=wrap;overflow=hidden;rotatable=0;points=[[0,0.5],[1,0.5]];portConstraint=eastwest;" parent="17acba5748e5396b-20" vertex="1">
          <mxGeometry y="130" width="170" height="26" as="geometry" />
        </mxCell>
        <mxCell id="5d2195bd80daf111-18" value="&lt;p style=&quot;margin: 0px ; margin-top: 4px ; text-align: center&quot;&gt;&lt;i&gt;&amp;lt;&amp;lt;Interface&amp;gt;&amp;gt;&lt;/i&gt;&lt;br&gt;&lt;b&gt;Dao&lt;/b&gt;&lt;/p&gt;&lt;hr size=&quot;1&quot;&gt;&lt;p style=&quot;margin: 0px ; margin-left: 4px&quot;&gt;+ Dao&amp;lt;K,V&amp;gt;: interface&lt;/p&gt;&lt;hr size=&quot;1&quot;&gt;&lt;p style=&quot;margin: 0px ; margin-left: 4px&quot;&gt;+ insert(V, v): void&lt;br&gt;+ delete(K, k):&amp;nbsp;void&lt;/p&gt;&lt;p style=&quot;margin: 0px ; margin-left: 4px&quot;&gt;+&amp;nbsp;update(V, v):&amp;nbsp;void&lt;/p&gt;&lt;p style=&quot;margin: 0px ; margin-left: 4px&quot;&gt;+&amp;nbsp;select(K, k): V&lt;/p&gt;&lt;p style=&quot;margin: 0px ; margin-left: 4px&quot;&gt;+&amp;nbsp;select():&amp;nbsp;ArrayList&amp;lt;V&amp;gt;&lt;/p&gt;" style="verticalAlign=top;align=left;overflow=fill;fontSize=12;fontFamily=Helvetica;html=1;rounded=0;shadow=0;comic=0;labelBackgroundColor=none;strokeWidth=1" parent="1" vertex="1">
          <mxGeometry x="649" y="127" width="190" height="153" as="geometry" />
        </mxCell>
        <mxCell id="xKzsLAUPRiaMBI0JEoiN-7" value="&lt;p style=&quot;margin: 0px ; margin-top: 4px ; text-align: center&quot;&gt;&lt;i&gt;&amp;lt;&amp;lt;Interface&amp;gt;&amp;gt;&lt;/i&gt;&lt;br&gt;&lt;b&gt;Service&lt;/b&gt;&lt;/p&gt;&lt;hr size=&quot;1&quot;&gt;&lt;p style=&quot;margin: 0px ; margin-left: 4px&quot;&gt;+ Service&amp;lt;K,V&amp;gt;: interface&lt;br&gt;&lt;/p&gt;&lt;hr size=&quot;1&quot;&gt;&lt;p style=&quot;margin: 0px ; margin-left: 4px&quot;&gt;+ register(V, v): void&lt;br&gt;+ remove(K, k): void&lt;/p&gt;&lt;p style=&quot;margin: 0px ; margin-left: 4px&quot;&gt;+&amp;nbsp;modify(V, v): void&lt;/p&gt;&lt;p style=&quot;margin: 0px ; margin-left: 4px&quot;&gt;+ get(K, k): V&lt;/p&gt;&lt;p style=&quot;margin: 0px ; margin-left: 4px&quot;&gt;+ get(): ArrayList&amp;lt;V&amp;gt;&lt;/p&gt;" style="verticalAlign=top;align=left;overflow=fill;fontSize=12;fontFamily=Helvetica;html=1;rounded=0;shadow=0;comic=0;labelBackgroundColor=none;strokeWidth=1" parent="1" vertex="1">
          <mxGeometry x="863" y="127" width="190" height="150" as="geometry" />
        </mxCell>
        <mxCell id="xKzsLAUPRiaMBI0JEoiN-8" value="&lt;p style=&quot;margin: 0px ; margin-top: 4px ; text-align: center&quot;&gt;&lt;i&gt;&amp;lt;&amp;lt;Interface&amp;gt;&amp;gt;&lt;/i&gt;&lt;br&gt;&lt;b&gt;CarMapper&lt;/b&gt;&lt;/p&gt;&lt;hr size=&quot;1&quot;&gt;&lt;p style=&quot;margin: 0px ; margin-left: 4px&quot;&gt;&lt;span&gt;+ insert(CarVO, v): void&lt;/span&gt;&lt;/p&gt;&lt;p style=&quot;margin: 0px ; margin-left: 4px&quot;&gt;&lt;span&gt;+ delete(String, k):&amp;nbsp;void&lt;/span&gt;&lt;br&gt;&lt;/p&gt;&lt;p style=&quot;margin: 0px ; margin-left: 4px&quot;&gt;&lt;span&gt;+&amp;nbsp;&lt;/span&gt;&lt;span&gt;update(CarVO, v):&amp;nbsp;void&lt;/span&gt;&lt;span&gt;&lt;br&gt;&lt;/span&gt;&lt;/p&gt;&lt;p style=&quot;margin: 0px ; margin-left: 4px&quot;&gt;&lt;span&gt;+&amp;nbsp;&lt;/span&gt;&lt;span&gt;select(String, k): CarVO&lt;br&gt;&lt;/span&gt;&lt;/p&gt;&lt;p style=&quot;margin: 0px ; margin-left: 4px&quot;&gt;&lt;span&gt;+&amp;nbsp;&lt;/span&gt;&lt;span&gt;select():&amp;nbsp;ArrayList&amp;lt;CarVO&amp;gt;&lt;/span&gt;&lt;span&gt;&lt;br&gt;&lt;/span&gt;&lt;/p&gt;" style="verticalAlign=top;align=left;overflow=fill;fontSize=12;fontFamily=Helvetica;html=1;rounded=0;shadow=0;comic=0;labelBackgroundColor=none;strokeWidth=1" parent="1" vertex="1">
          <mxGeometry x="652" y="1250" width="190" height="140" as="geometry" />
        </mxCell>
        <mxCell id="t8KdcwunpLMHz8m_v9fA-4" value="CarVO" style="swimlane;html=1;fontStyle=0;childLayout=stackLayout;horizontal=1;startSize=26;fillColor=none;horizontalStack=0;resizeParent=1;resizeLast=0;collapsible=1;marginBottom=0;swimlaneFillColor=#ffffff;rounded=0;shadow=0;comic=0;labelBackgroundColor=none;strokeWidth=1;fontFamily=Verdana;fontSize=10;align=center;" parent="1" vertex="1">
          <mxGeometry x="679" y="504" width="160" height="137" as="geometry" />
        </mxCell>
        <mxCell id="t8KdcwunpLMHz8m_v9fA-5" value="+ Car_num: type" style="text;html=1;strokeColor=none;fillColor=none;align=left;verticalAlign=top;spacingLeft=4;spacingRight=4;whiteSpace=wrap;overflow=hidden;rotatable=0;points=[[0,0.5],[1,0.5]];portConstraint=eastwest;" parent="t8KdcwunpLMHz8m_v9fA-4" vertex="1">
          <mxGeometry y="26" width="160" height="26" as="geometry" />
        </mxCell>
        <mxCell id="t8KdcwunpLMHz8m_v9fA-6" value="+ In_time: type" style="text;html=1;strokeColor=none;fillColor=none;align=left;verticalAlign=top;spacingLeft=4;spacingRight=4;whiteSpace=wrap;overflow=hidden;rotatable=0;points=[[0,0.5],[1,0.5]];portConstraint=eastwest;" parent="t8KdcwunpLMHz8m_v9fA-4" vertex="1">
          <mxGeometry y="52" width="160" height="26" as="geometry" />
        </mxCell>
        <mxCell id="t8KdcwunpLMHz8m_v9fA-7" value="+ Out_time: type" style="text;html=1;strokeColor=none;fillColor=none;align=left;verticalAlign=top;spacingLeft=4;spacingRight=4;whiteSpace=wrap;overflow=hidden;rotatable=0;points=[[0,0.5],[1,0.5]];portConstraint=eastwest;" parent="t8KdcwunpLMHz8m_v9fA-4" vertex="1">
          <mxGeometry y="78" width="160" height="26" as="geometry" />
        </mxCell>
        <mxCell id="t8KdcwunpLMHz8m_v9fA-8" value="+ Mem_id: type" style="text;html=1;strokeColor=none;fillColor=none;align=left;verticalAlign=top;spacingLeft=4;spacingRight=4;whiteSpace=wrap;overflow=hidden;rotatable=0;points=[[0,0.5],[1,0.5]];portConstraint=eastwest;" parent="t8KdcwunpLMHz8m_v9fA-4" vertex="1">
          <mxGeometry y="104" width="160" height="26" as="geometry" />
        </mxCell>
        <mxCell id="t8KdcwunpLMHz8m_v9fA-9" value="MemberVO" style="swimlane;html=1;fontStyle=0;childLayout=stackLayout;horizontal=1;startSize=26;fillColor=none;horizontalStack=0;resizeParent=1;resizeLast=0;collapsible=1;marginBottom=0;swimlaneFillColor=#ffffff;rounded=0;shadow=0;comic=0;labelBackgroundColor=none;strokeWidth=1;fontFamily=Verdana;fontSize=10;align=center;" parent="1" vertex="1">
          <mxGeometry x="859" y="486" width="160" height="156" as="geometry" />
        </mxCell>
        <mxCell id="t8KdcwunpLMHz8m_v9fA-10" value="+ Mem_id: type" style="text;html=1;strokeColor=none;fillColor=none;align=left;verticalAlign=top;spacingLeft=4;spacingRight=4;whiteSpace=wrap;overflow=hidden;rotatable=0;points=[[0,0.5],[1,0.5]];portConstraint=eastwest;" parent="t8KdcwunpLMHz8m_v9fA-9" vertex="1">
          <mxGeometry y="26" width="160" height="26" as="geometry" />
        </mxCell>
        <mxCell id="t8KdcwunpLMHz8m_v9fA-11" value="+ Mem_pwd: type" style="text;html=1;strokeColor=none;fillColor=none;align=left;verticalAlign=top;spacingLeft=4;spacingRight=4;whiteSpace=wrap;overflow=hidden;rotatable=0;points=[[0,0.5],[1,0.5]];portConstraint=eastwest;" parent="t8KdcwunpLMHz8m_v9fA-9" vertex="1">
          <mxGeometry y="52" width="160" height="26" as="geometry" />
        </mxCell>
        <mxCell id="t8KdcwunpLMHz8m_v9fA-12" value="+ Mem_name: type" style="text;html=1;strokeColor=none;fillColor=none;align=left;verticalAlign=top;spacingLeft=4;spacingRight=4;whiteSpace=wrap;overflow=hidden;rotatable=0;points=[[0,0.5],[1,0.5]];portConstraint=eastwest;" parent="t8KdcwunpLMHz8m_v9fA-9" vertex="1">
          <mxGeometry y="78" width="160" height="26" as="geometry" />
        </mxCell>
        <mxCell id="qopm1GABGxC7yE1gdihB-2" value="+ Mem_tel: type" style="text;html=1;strokeColor=none;fillColor=none;align=left;verticalAlign=top;spacingLeft=4;spacingRight=4;whiteSpace=wrap;overflow=hidden;rotatable=0;points=[[0,0.5],[1,0.5]];portConstraint=eastwest;" vertex="1" parent="t8KdcwunpLMHz8m_v9fA-9">
          <mxGeometry y="104" width="160" height="26" as="geometry" />
        </mxCell>
        <mxCell id="t8KdcwunpLMHz8m_v9fA-13" value="+ Mem_money: type" style="text;html=1;strokeColor=none;fillColor=none;align=left;verticalAlign=top;spacingLeft=4;spacingRight=4;whiteSpace=wrap;overflow=hidden;rotatable=0;points=[[0,0.5],[1,0.5]];portConstraint=eastwest;" parent="t8KdcwunpLMHz8m_v9fA-9" vertex="1">
          <mxGeometry y="130" width="160" height="26" as="geometry" />
        </mxCell>
        <mxCell id="c88SSMdFqxS7zkuwPy9e-11" style="edgeStyle=orthogonalEdgeStyle;rounded=0;orthogonalLoop=1;jettySize=auto;html=1;exitX=0.5;exitY=0;exitDx=0;exitDy=0;entryX=0.75;entryY=1;entryDx=0;entryDy=0;dashed=1;startArrow=none;startFill=0;endArrow=block;endFill=0;" parent="1" source="t8KdcwunpLMHz8m_v9fA-20" target="5d2195bd80daf111-18" edge="1">
          <mxGeometry relative="1" as="geometry">
            <Array as="points">
              <mxPoint x="1308" y="360" />
              <mxPoint x="792" y="360" />
            </Array>
          </mxGeometry>
        </mxCell>
        <mxCell id="cg3J0_zzSuhIZT6PAa9S-2" style="edgeStyle=orthogonalEdgeStyle;rounded=0;orthogonalLoop=1;jettySize=auto;html=1;exitX=0.5;exitY=1;exitDx=0;exitDy=0;entryX=1;entryY=0.5;entryDx=0;entryDy=0;dashed=1;startArrow=none;startFill=0;endArrow=openThin;endFill=0;" parent="1" source="t8KdcwunpLMHz8m_v9fA-20" target="t8KdcwunpLMHz8m_v9fA-38" edge="1">
          <mxGeometry relative="1" as="geometry">
            <Array as="points">
              <mxPoint x="1310" y="660" />
              <mxPoint x="1310" y="1320" />
            </Array>
          </mxGeometry>
        </mxCell>
        <mxCell id="t8KdcwunpLMHz8m_v9fA-20" value="MemberDao" style="swimlane;html=1;fontStyle=0;childLayout=stackLayout;horizontal=1;startSize=26;fillColor=none;horizontalStack=0;resizeParent=1;resizeLast=0;collapsible=1;marginBottom=0;swimlaneFillColor=#ffffff;rounded=0;shadow=0;comic=0;labelBackgroundColor=none;strokeWidth=1;fontFamily=Verdana;fontSize=10;align=center;" parent="1" vertex="1">
          <mxGeometry x="1213" y="500" width="190" height="160" as="geometry" />
        </mxCell>
        <mxCell id="t8KdcwunpLMHz8m_v9fA-21" value="+ insert(MemberVO, v): void" style="text;html=1;strokeColor=none;fillColor=none;align=left;verticalAlign=top;spacingLeft=4;spacingRight=4;whiteSpace=wrap;overflow=hidden;rotatable=0;points=[[0,0.5],[1,0.5]];portConstraint=eastwest;" parent="t8KdcwunpLMHz8m_v9fA-20" vertex="1">
          <mxGeometry y="26" width="190" height="26" as="geometry" />
        </mxCell>
        <mxCell id="t8KdcwunpLMHz8m_v9fA-22" value="&lt;span&gt;+ delete(String, k):&amp;nbsp;void&lt;/span&gt;" style="text;html=1;strokeColor=none;fillColor=none;align=left;verticalAlign=top;spacingLeft=4;spacingRight=4;whiteSpace=wrap;overflow=hidden;rotatable=0;points=[[0,0.5],[1,0.5]];portConstraint=eastwest;" parent="t8KdcwunpLMHz8m_v9fA-20" vertex="1">
          <mxGeometry y="52" width="190" height="26" as="geometry" />
        </mxCell>
        <mxCell id="t8KdcwunpLMHz8m_v9fA-23" value="+&amp;nbsp;&lt;span&gt;update(MemberVO, v):&amp;nbsp;void&lt;/span&gt;" style="text;html=1;strokeColor=none;fillColor=none;align=left;verticalAlign=top;spacingLeft=4;spacingRight=4;whiteSpace=wrap;overflow=hidden;rotatable=0;points=[[0,0.5],[1,0.5]];portConstraint=eastwest;" parent="t8KdcwunpLMHz8m_v9fA-20" vertex="1">
          <mxGeometry y="78" width="190" height="26" as="geometry" />
        </mxCell>
        <mxCell id="t8KdcwunpLMHz8m_v9fA-24" value="+&amp;nbsp;&lt;span&gt;select(String, k): MemberVO&lt;br&gt;&lt;br&gt;&lt;/span&gt;" style="text;html=1;strokeColor=none;fillColor=none;align=left;verticalAlign=top;spacingLeft=4;spacingRight=4;whiteSpace=wrap;overflow=hidden;rotatable=0;points=[[0,0.5],[1,0.5]];portConstraint=eastwest;" parent="t8KdcwunpLMHz8m_v9fA-20" vertex="1">
          <mxGeometry y="104" width="190" height="26" as="geometry" />
        </mxCell>
        <mxCell id="t8KdcwunpLMHz8m_v9fA-25" value="+&amp;nbsp;&lt;span&gt;select():&amp;nbsp;ArrayList&amp;lt;MemberVO&amp;gt;&lt;/span&gt;&lt;span&gt;&lt;br&gt;&lt;br&gt;&lt;/span&gt;" style="text;html=1;strokeColor=none;fillColor=none;align=left;verticalAlign=top;spacingLeft=4;spacingRight=4;whiteSpace=wrap;overflow=hidden;rotatable=0;points=[[0,0.5],[1,0.5]];portConstraint=eastwest;" parent="t8KdcwunpLMHz8m_v9fA-20" vertex="1">
          <mxGeometry y="130" width="190" height="26" as="geometry" />
        </mxCell>
        <mxCell id="c88SSMdFqxS7zkuwPy9e-10" style="edgeStyle=orthogonalEdgeStyle;rounded=0;orthogonalLoop=1;jettySize=auto;html=1;exitX=0.5;exitY=0;exitDx=0;exitDy=0;entryX=0.25;entryY=1;entryDx=0;entryDy=0;dashed=1;startArrow=none;startFill=0;endArrow=block;endFill=0;" parent="1" source="t8KdcwunpLMHz8m_v9fA-26" target="xKzsLAUPRiaMBI0JEoiN-7" edge="1">
          <mxGeometry relative="1" as="geometry">
            <Array as="points">
              <mxPoint x="447" y="400" />
              <mxPoint x="910" y="400" />
            </Array>
          </mxGeometry>
        </mxCell>
        <mxCell id="t8KdcwunpLMHz8m_v9fA-26" value="CarService" style="swimlane;html=1;fontStyle=0;childLayout=stackLayout;horizontal=1;startSize=26;fillColor=none;horizontalStack=0;resizeParent=1;resizeLast=0;collapsible=1;marginBottom=0;swimlaneFillColor=#ffffff;rounded=0;shadow=0;comic=0;labelBackgroundColor=none;strokeWidth=1;fontFamily=Verdana;fontSize=10;align=center;" parent="1" vertex="1">
          <mxGeometry x="362" y="510" width="170" height="160" as="geometry" />
        </mxCell>
        <mxCell id="t8KdcwunpLMHz8m_v9fA-27" value="+ register(CarVO, v): void" style="text;html=1;strokeColor=none;fillColor=none;align=left;verticalAlign=top;spacingLeft=4;spacingRight=4;whiteSpace=wrap;overflow=hidden;rotatable=0;points=[[0,0.5],[1,0.5]];portConstraint=eastwest;" parent="t8KdcwunpLMHz8m_v9fA-26" vertex="1">
          <mxGeometry y="26" width="170" height="26" as="geometry" />
        </mxCell>
        <mxCell id="t8KdcwunpLMHz8m_v9fA-28" value="&lt;span&gt;+ remove(String, k):&amp;nbsp;void&lt;/span&gt;" style="text;html=1;strokeColor=none;fillColor=none;align=left;verticalAlign=top;spacingLeft=4;spacingRight=4;whiteSpace=wrap;overflow=hidden;rotatable=0;points=[[0,0.5],[1,0.5]];portConstraint=eastwest;" parent="t8KdcwunpLMHz8m_v9fA-26" vertex="1">
          <mxGeometry y="52" width="170" height="26" as="geometry" />
        </mxCell>
        <mxCell id="t8KdcwunpLMHz8m_v9fA-29" value="+&amp;nbsp;modify&lt;span&gt;(CarVO, v):&amp;nbsp;void&lt;/span&gt;" style="text;html=1;strokeColor=none;fillColor=none;align=left;verticalAlign=top;spacingLeft=4;spacingRight=4;whiteSpace=wrap;overflow=hidden;rotatable=0;points=[[0,0.5],[1,0.5]];portConstraint=eastwest;" parent="t8KdcwunpLMHz8m_v9fA-26" vertex="1">
          <mxGeometry y="78" width="170" height="26" as="geometry" />
        </mxCell>
        <mxCell id="t8KdcwunpLMHz8m_v9fA-30" value="+&amp;nbsp;get&lt;span&gt;(String, k): CarVO&lt;br&gt;&lt;br&gt;&lt;/span&gt;" style="text;html=1;strokeColor=none;fillColor=none;align=left;verticalAlign=top;spacingLeft=4;spacingRight=4;whiteSpace=wrap;overflow=hidden;rotatable=0;points=[[0,0.5],[1,0.5]];portConstraint=eastwest;" parent="t8KdcwunpLMHz8m_v9fA-26" vertex="1">
          <mxGeometry y="104" width="170" height="26" as="geometry" />
        </mxCell>
        <mxCell id="t8KdcwunpLMHz8m_v9fA-31" value="+&amp;nbsp;get&lt;span&gt;():&amp;nbsp;ArrayList&amp;lt;CarVO&amp;gt;&lt;/span&gt;&lt;span&gt;&lt;br&gt;&lt;br&gt;&lt;/span&gt;" style="text;html=1;strokeColor=none;fillColor=none;align=left;verticalAlign=top;spacingLeft=4;spacingRight=4;whiteSpace=wrap;overflow=hidden;rotatable=0;points=[[0,0.5],[1,0.5]];portConstraint=eastwest;" parent="t8KdcwunpLMHz8m_v9fA-26" vertex="1">
          <mxGeometry y="130" width="170" height="26" as="geometry" />
        </mxCell>
        <mxCell id="c88SSMdFqxS7zkuwPy9e-9" style="edgeStyle=orthogonalEdgeStyle;rounded=0;orthogonalLoop=1;jettySize=auto;html=1;exitX=0.5;exitY=0;exitDx=0;exitDy=0;entryX=1;entryY=0.5;entryDx=0;entryDy=0;dashed=1;startArrow=none;startFill=0;endArrow=block;endFill=0;" parent="1" source="t8KdcwunpLMHz8m_v9fA-32" target="xKzsLAUPRiaMBI0JEoiN-7" edge="1">
          <mxGeometry relative="1" as="geometry" />
        </mxCell>
        <mxCell id="cg3J0_zzSuhIZT6PAa9S-11" style="edgeStyle=orthogonalEdgeStyle;rounded=0;orthogonalLoop=1;jettySize=auto;html=1;exitX=0.25;exitY=1;exitDx=0;exitDy=0;entryX=1;entryY=0.5;entryDx=0;entryDy=0;dashed=1;startArrow=none;startFill=0;endArrow=openThin;endFill=0;" parent="1" source="t8KdcwunpLMHz8m_v9fA-32" target="t8KdcwunpLMHz8m_v9fA-13" edge="1">
          <mxGeometry relative="1" as="geometry">
            <Array as="points">
              <mxPoint x="1501" y="680" />
              <mxPoint x="1160" y="680" />
              <mxPoint x="1160" y="629" />
            </Array>
          </mxGeometry>
        </mxCell>
        <mxCell id="t8KdcwunpLMHz8m_v9fA-32" value="MemberService" style="swimlane;html=1;fontStyle=0;childLayout=stackLayout;horizontal=1;startSize=26;fillColor=none;horizontalStack=0;resizeParent=1;resizeLast=0;collapsible=1;marginBottom=0;swimlaneFillColor=#ffffff;rounded=0;shadow=0;comic=0;labelBackgroundColor=none;strokeWidth=1;fontFamily=Verdana;fontSize=10;align=center;" parent="1" vertex="1">
          <mxGeometry x="1454" y="500" width="190" height="160" as="geometry" />
        </mxCell>
        <mxCell id="t8KdcwunpLMHz8m_v9fA-33" value="+register(MemberVO, v): void" style="text;html=1;strokeColor=none;fillColor=none;align=left;verticalAlign=top;spacingLeft=4;spacingRight=4;whiteSpace=wrap;overflow=hidden;rotatable=0;points=[[0,0.5],[1,0.5]];portConstraint=eastwest;" parent="t8KdcwunpLMHz8m_v9fA-32" vertex="1">
          <mxGeometry y="26" width="190" height="26" as="geometry" />
        </mxCell>
        <mxCell id="t8KdcwunpLMHz8m_v9fA-34" value="&lt;span&gt;+&lt;/span&gt;remove&lt;span&gt;(String, k):&amp;nbsp;void&lt;/span&gt;" style="text;html=1;strokeColor=none;fillColor=none;align=left;verticalAlign=top;spacingLeft=4;spacingRight=4;whiteSpace=wrap;overflow=hidden;rotatable=0;points=[[0,0.5],[1,0.5]];portConstraint=eastwest;" parent="t8KdcwunpLMHz8m_v9fA-32" vertex="1">
          <mxGeometry y="52" width="190" height="26" as="geometry" />
        </mxCell>
        <mxCell id="t8KdcwunpLMHz8m_v9fA-35" value="+ modify&lt;span&gt;(MemberVO, v):&amp;nbsp;void&lt;/span&gt;" style="text;html=1;strokeColor=none;fillColor=none;align=left;verticalAlign=top;spacingLeft=4;spacingRight=4;whiteSpace=wrap;overflow=hidden;rotatable=0;points=[[0,0.5],[1,0.5]];portConstraint=eastwest;" parent="t8KdcwunpLMHz8m_v9fA-32" vertex="1">
          <mxGeometry y="78" width="190" height="26" as="geometry" />
        </mxCell>
        <mxCell id="t8KdcwunpLMHz8m_v9fA-36" value="+&amp;nbsp;get&lt;span&gt;(String, k): MemberVO&lt;br&gt;&lt;br&gt;&lt;/span&gt;" style="text;html=1;strokeColor=none;fillColor=none;align=left;verticalAlign=top;spacingLeft=4;spacingRight=4;whiteSpace=wrap;overflow=hidden;rotatable=0;points=[[0,0.5],[1,0.5]];portConstraint=eastwest;" parent="t8KdcwunpLMHz8m_v9fA-32" vertex="1">
          <mxGeometry y="104" width="190" height="26" as="geometry" />
        </mxCell>
        <mxCell id="t8KdcwunpLMHz8m_v9fA-37" value="+&amp;nbsp;get&lt;span&gt;():&amp;nbsp;ArrayList&amp;lt;MemberVO&amp;gt;&lt;/span&gt;&lt;span&gt;&lt;br&gt;&lt;br&gt;&lt;/span&gt;" style="text;html=1;strokeColor=none;fillColor=none;align=left;verticalAlign=top;spacingLeft=4;spacingRight=4;whiteSpace=wrap;overflow=hidden;rotatable=0;points=[[0,0.5],[1,0.5]];portConstraint=eastwest;" parent="t8KdcwunpLMHz8m_v9fA-32" vertex="1">
          <mxGeometry y="130" width="190" height="26" as="geometry" />
        </mxCell>
        <mxCell id="t8KdcwunpLMHz8m_v9fA-38" value="&lt;p style=&quot;margin: 0px ; margin-top: 4px ; text-align: center&quot;&gt;&lt;i&gt;&amp;lt;&amp;lt;Interface&amp;gt;&amp;gt;&lt;/i&gt;&lt;br&gt;&lt;b&gt;MemberMapper&lt;/b&gt;&lt;/p&gt;&lt;hr size=&quot;1&quot;&gt;&lt;p style=&quot;margin: 0px ; margin-left: 4px&quot;&gt;&lt;span&gt;+ insert(MemberVO, v): void&lt;/span&gt;&lt;br&gt;&lt;/p&gt;&lt;p style=&quot;margin: 0px ; margin-left: 4px&quot;&gt;&lt;span&gt;+ delete(String, k):&amp;nbsp;void&lt;/span&gt;&lt;br&gt;&lt;/p&gt;&lt;p style=&quot;margin: 0px ; margin-left: 4px&quot;&gt;&lt;span&gt;+&amp;nbsp;&lt;/span&gt;&lt;span&gt;update(MemberVO, v):&amp;nbsp;void&lt;/span&gt;&lt;span&gt;&lt;br&gt;&lt;/span&gt;&lt;/p&gt;&lt;p style=&quot;margin: 0px ; margin-left: 4px&quot;&gt;&lt;span&gt;+&amp;nbsp;&lt;/span&gt;&lt;span&gt;select(String, k): MemberVO&lt;br&gt;&lt;/span&gt;&lt;/p&gt;&lt;p style=&quot;margin: 0px ; margin-left: 4px&quot;&gt;&lt;span&gt;+&amp;nbsp;&lt;/span&gt;&lt;span&gt;select():&amp;nbsp;ArrayList&amp;lt;MemberVO&amp;gt;&lt;/span&gt;&lt;span&gt;&lt;br&gt;&lt;/span&gt;&lt;/p&gt;" style="verticalAlign=top;align=left;overflow=fill;fontSize=12;fontFamily=Helvetica;html=1;rounded=0;shadow=0;comic=0;labelBackgroundColor=none;strokeWidth=1" parent="1" vertex="1">
          <mxGeometry x="862" y="1250" width="190" height="140" as="geometry" />
        </mxCell>
        <mxCell id="t8KdcwunpLMHz8m_v9fA-50" style="edgeStyle=orthogonalEdgeStyle;rounded=0;orthogonalLoop=1;jettySize=auto;html=1;exitX=0.5;exitY=1;exitDx=0;exitDy=0;exitPerimeter=0;startArrow=none;startFill=0;endArrow=none;endFill=0;dashed=1;entryX=0;entryY=0;entryDx=70;entryDy=32;entryPerimeter=0;dashPattern=1 4;" parent="1" source="t8KdcwunpLMHz8m_v9fA-39" target="t8KdcwunpLMHz8m_v9fA-39" edge="1">
          <mxGeometry relative="1" as="geometry">
            <mxPoint x="1039" y="481" as="targetPoint" />
            <Array as="points">
              <mxPoint x="654" y="830" />
              <mxPoint x="1039" y="830" />
              <mxPoint x="1039" y="473" />
            </Array>
          </mxGeometry>
        </mxCell>
        <mxCell id="t8KdcwunpLMHz8m_v9fA-39" value="com.vo" style="shape=folder;fontStyle=1;spacingTop=10;tabWidth=40;tabHeight=14;tabPosition=left;html=1;" parent="1" vertex="1">
          <mxGeometry x="619" y="441" width="70" height="50" as="geometry" />
        </mxCell>
        <mxCell id="Gd1RGO2BBnkTL2WyVlbR-2" value="com.frame" style="shape=folder;fontStyle=1;spacingTop=10;tabWidth=40;tabHeight=14;tabPosition=left;html=1;" parent="1" vertex="1">
          <mxGeometry x="592" y="64" width="70" height="50" as="geometry" />
        </mxCell>
        <mxCell id="Gd1RGO2BBnkTL2WyVlbR-3" style="edgeStyle=orthogonalEdgeStyle;rounded=0;orthogonalLoop=1;jettySize=auto;html=1;exitX=0.5;exitY=1;exitDx=0;exitDy=0;exitPerimeter=0;startArrow=none;startFill=0;endArrow=none;endFill=0;dashed=1;entryX=0;entryY=0;entryDx=70;entryDy=32;entryPerimeter=0;dashPattern=1 4;" parent="1" source="Gd1RGO2BBnkTL2WyVlbR-2" target="Gd1RGO2BBnkTL2WyVlbR-2" edge="1">
          <mxGeometry relative="1" as="geometry">
            <mxPoint x="672" y="-133.9999999999999" as="targetPoint" />
            <mxPoint x="637" y="-116" as="sourcePoint" />
            <Array as="points">
              <mxPoint x="627" y="304" />
              <mxPoint x="1072" y="304" />
              <mxPoint x="1072" y="96" />
            </Array>
          </mxGeometry>
        </mxCell>
        <mxCell id="Gd1RGO2BBnkTL2WyVlbR-4" value="com.car" style="shape=folder;fontStyle=1;spacingTop=10;tabWidth=40;tabHeight=14;tabPosition=left;html=1;" parent="1" vertex="1">
          <mxGeometry x="90" y="440" width="70" height="50" as="geometry" />
        </mxCell>
        <mxCell id="Gd1RGO2BBnkTL2WyVlbR-5" style="edgeStyle=orthogonalEdgeStyle;rounded=0;orthogonalLoop=1;jettySize=auto;html=1;exitX=0.5;exitY=1;exitDx=0;exitDy=0;exitPerimeter=0;startArrow=none;startFill=0;endArrow=none;endFill=0;dashed=1;entryX=0;entryY=0;entryDx=70;entryDy=32;entryPerimeter=0;dashPattern=1 4;" parent="1" source="Gd1RGO2BBnkTL2WyVlbR-4" target="Gd1RGO2BBnkTL2WyVlbR-4" edge="1">
          <mxGeometry relative="1" as="geometry">
            <mxPoint x="204" y="242.0000000000001" as="targetPoint" />
            <mxPoint x="169" y="260" as="sourcePoint" />
            <Array as="points">
              <mxPoint x="125" y="680" />
              <mxPoint x="544" y="680" />
              <mxPoint x="544" y="472" />
            </Array>
          </mxGeometry>
        </mxCell>
        <mxCell id="c88SSMdFqxS7zkuwPy9e-1" value="com.member" style="shape=folder;fontStyle=1;spacingTop=10;tabWidth=40;tabHeight=14;tabPosition=left;html=1;" parent="1" vertex="1">
          <mxGeometry x="1152" y="440" width="80" height="50" as="geometry" />
        </mxCell>
        <mxCell id="c88SSMdFqxS7zkuwPy9e-2" style="edgeStyle=orthogonalEdgeStyle;rounded=0;orthogonalLoop=1;jettySize=auto;html=1;exitX=0.5;exitY=1;exitDx=0;exitDy=0;exitPerimeter=0;startArrow=none;startFill=0;endArrow=none;endFill=0;dashed=1;entryX=0;entryY=0;entryDx=80;entryDy=32;entryPerimeter=0;dashPattern=1 4;" parent="1" source="c88SSMdFqxS7zkuwPy9e-1" target="c88SSMdFqxS7zkuwPy9e-1" edge="1">
          <mxGeometry relative="1" as="geometry">
            <mxPoint x="1242" y="472" as="targetPoint" />
            <mxPoint x="1197" y="260" as="sourcePoint" />
            <Array as="points">
              <mxPoint x="1192" y="670" />
              <mxPoint x="1663" y="670" />
              <mxPoint x="1663" y="472" />
            </Array>
          </mxGeometry>
        </mxCell>
        <mxCell id="c88SSMdFqxS7zkuwPy9e-6" value="com.mapper" style="shape=folder;fontStyle=1;spacingTop=10;tabWidth=40;tabHeight=14;tabPosition=left;html=1;" parent="1" vertex="1">
          <mxGeometry x="592" y="1190" width="80" height="50" as="geometry" />
        </mxCell>
        <mxCell id="c88SSMdFqxS7zkuwPy9e-7" style="edgeStyle=orthogonalEdgeStyle;rounded=0;orthogonalLoop=1;jettySize=auto;html=1;exitX=0.5;exitY=1;exitDx=0;exitDy=0;exitPerimeter=0;startArrow=none;startFill=0;endArrow=none;endFill=0;dashed=1;dashPattern=1 4;" parent="1" source="c88SSMdFqxS7zkuwPy9e-6" edge="1">
          <mxGeometry relative="1" as="geometry">
            <mxPoint x="672" y="1222" as="targetPoint" />
            <mxPoint x="647" y="1010" as="sourcePoint" />
            <Array as="points">
              <mxPoint x="632" y="1410" />
              <mxPoint x="1072" y="1410" />
              <mxPoint x="1072" y="1222" />
            </Array>
          </mxGeometry>
        </mxCell>
        <mxCell id="cg3J0_zzSuhIZT6PAa9S-6" style="edgeStyle=orthogonalEdgeStyle;rounded=0;orthogonalLoop=1;jettySize=auto;html=1;exitX=0;exitY=0.5;exitDx=0;exitDy=0;entryX=1;entryY=0.5;entryDx=0;entryDy=0;dashed=1;startArrow=none;startFill=0;endArrow=openThin;endFill=0;" parent="1" source="t8KdcwunpLMHz8m_v9fA-29" target="17acba5748e5396b-26" edge="1">
          <mxGeometry relative="1" as="geometry" />
        </mxCell>
        <mxCell id="cg3J0_zzSuhIZT6PAa9S-7" style="edgeStyle=orthogonalEdgeStyle;rounded=0;orthogonalLoop=1;jettySize=auto;html=1;exitX=0;exitY=0.5;exitDx=0;exitDy=0;entryX=1;entryY=0.5;entryDx=0;entryDy=0;dashed=1;startArrow=none;startFill=0;endArrow=openThin;endFill=0;" parent="1" source="t8KdcwunpLMHz8m_v9fA-35" target="t8KdcwunpLMHz8m_v9fA-23" edge="1">
          <mxGeometry relative="1" as="geometry" />
        </mxCell>
        <mxCell id="cg3J0_zzSuhIZT6PAa9S-9" style="edgeStyle=orthogonalEdgeStyle;rounded=0;orthogonalLoop=1;jettySize=auto;html=1;exitX=1;exitY=0.5;exitDx=0;exitDy=0;entryX=0;entryY=0.5;entryDx=0;entryDy=0;dashed=1;startArrow=none;startFill=0;endArrow=openThin;endFill=0;" parent="1" source="t8KdcwunpLMHz8m_v9fA-30" target="t8KdcwunpLMHz8m_v9fA-6" edge="1">
          <mxGeometry relative="1" as="geometry">
            <Array as="points">
              <mxPoint x="532" y="638" />
            </Array>
          </mxGeometry>
        </mxCell>
        <mxCell id="LZCbR1FI0CwIzSMortp8-1" value="ManagerVO" style="swimlane;fontStyle=0;childLayout=stackLayout;horizontal=1;startSize=26;fillColor=none;horizontalStack=0;resizeParent=1;resizeParentMax=0;resizeLast=0;collapsible=1;marginBottom=0;" vertex="1" parent="1">
          <mxGeometry x="780" y="670" width="140" height="130" as="geometry" />
        </mxCell>
        <mxCell id="LZCbR1FI0CwIzSMortp8-2" value="+ Mgr_id: type" style="text;strokeColor=none;fillColor=none;align=left;verticalAlign=top;spacingLeft=4;spacingRight=4;overflow=hidden;rotatable=0;points=[[0,0.5],[1,0.5]];portConstraint=eastwest;" vertex="1" parent="LZCbR1FI0CwIzSMortp8-1">
          <mxGeometry y="26" width="140" height="26" as="geometry" />
        </mxCell>
        <mxCell id="LZCbR1FI0CwIzSMortp8-3" value="+ Mgr_pwd: type" style="text;strokeColor=none;fillColor=none;align=left;verticalAlign=top;spacingLeft=4;spacingRight=4;overflow=hidden;rotatable=0;points=[[0,0.5],[1,0.5]];portConstraint=eastwest;" vertex="1" parent="LZCbR1FI0CwIzSMortp8-1">
          <mxGeometry y="52" width="140" height="26" as="geometry" />
        </mxCell>
        <mxCell id="LZCbR1FI0CwIzSMortp8-4" value="+ Mgr_name: type" style="text;strokeColor=none;fillColor=none;align=left;verticalAlign=top;spacingLeft=4;spacingRight=4;overflow=hidden;rotatable=0;points=[[0,0.5],[1,0.5]];portConstraint=eastwest;" vertex="1" parent="LZCbR1FI0CwIzSMortp8-1">
          <mxGeometry y="78" width="140" height="26" as="geometry" />
        </mxCell>
        <mxCell id="qopm1GABGxC7yE1gdihB-1" value="+ Mgr_tel: type" style="text;strokeColor=none;fillColor=none;align=left;verticalAlign=top;spacingLeft=4;spacingRight=4;overflow=hidden;rotatable=0;points=[[0,0.5],[1,0.5]];portConstraint=eastwest;" vertex="1" parent="LZCbR1FI0CwIzSMortp8-1">
          <mxGeometry y="104" width="140" height="26" as="geometry" />
        </mxCell>
        <mxCell id="qopm1GABGxC7yE1gdihB-4" style="edgeStyle=orthogonalEdgeStyle;rounded=0;orthogonalLoop=1;jettySize=auto;html=1;exitX=0;exitY=0.5;exitDx=0;exitDy=0;entryX=1;entryY=0.5;entryDx=0;entryDy=0;dashed=1;startArrow=ERone;startFill=0;endArrow=openThin;endFill=0;" edge="1" parent="1" target="qopm1GABGxC7yE1gdihB-2">
          <mxGeometry relative="1" as="geometry">
            <mxPoint x="1213" y="590" as="sourcePoint" />
            <mxPoint x="1022.3599999999999" y="590.742" as="targetPoint" />
            <Array as="points">
              <mxPoint x="1160" y="590" />
              <mxPoint x="1160" y="603" />
            </Array>
          </mxGeometry>
        </mxCell>
        <mxCell id="qopm1GABGxC7yE1gdihB-28" style="edgeStyle=orthogonalEdgeStyle;rounded=0;orthogonalLoop=1;jettySize=auto;html=1;exitX=0.5;exitY=0;exitDx=0;exitDy=0;dashed=1;startArrow=none;startFill=0;endArrow=openThin;endFill=0;entryX=0;entryY=0.5;entryDx=0;entryDy=0;" edge="1" parent="1" source="qopm1GABGxC7yE1gdihB-5" target="qopm1GABGxC7yE1gdihB-1">
          <mxGeometry relative="1" as="geometry">
            <mxPoint x="820" y="810" as="targetPoint" />
          </mxGeometry>
        </mxCell>
        <mxCell id="qopm1GABGxC7yE1gdihB-5" value="ManagerDao" style="swimlane;html=1;fontStyle=0;childLayout=stackLayout;horizontal=1;startSize=26;fillColor=none;horizontalStack=0;resizeParent=1;resizeLast=0;collapsible=1;marginBottom=0;swimlaneFillColor=#ffffff;rounded=0;shadow=0;comic=0;labelBackgroundColor=none;strokeWidth=1;fontFamily=Verdana;fontSize=10;align=center;" vertex="1" parent="1">
          <mxGeometry x="657" y="941" width="193" height="160" as="geometry" />
        </mxCell>
        <mxCell id="qopm1GABGxC7yE1gdihB-6" value="+ insert(ManagerVO, v): void" style="text;html=1;strokeColor=none;fillColor=none;align=left;verticalAlign=top;spacingLeft=4;spacingRight=4;whiteSpace=wrap;overflow=hidden;rotatable=0;points=[[0,0.5],[1,0.5]];portConstraint=eastwest;" vertex="1" parent="qopm1GABGxC7yE1gdihB-5">
          <mxGeometry y="26" width="193" height="26" as="geometry" />
        </mxCell>
        <mxCell id="qopm1GABGxC7yE1gdihB-7" value="&lt;span&gt;+ delete(String, k):&amp;nbsp;void&lt;/span&gt;" style="text;html=1;strokeColor=none;fillColor=none;align=left;verticalAlign=top;spacingLeft=4;spacingRight=4;whiteSpace=wrap;overflow=hidden;rotatable=0;points=[[0,0.5],[1,0.5]];portConstraint=eastwest;" vertex="1" parent="qopm1GABGxC7yE1gdihB-5">
          <mxGeometry y="52" width="193" height="26" as="geometry" />
        </mxCell>
        <mxCell id="qopm1GABGxC7yE1gdihB-8" value="+&amp;nbsp;&lt;span&gt;update(ManagerVO, v):&amp;nbsp;void&lt;/span&gt;" style="text;html=1;strokeColor=none;fillColor=none;align=left;verticalAlign=top;spacingLeft=4;spacingRight=4;whiteSpace=wrap;overflow=hidden;rotatable=0;points=[[0,0.5],[1,0.5]];portConstraint=eastwest;" vertex="1" parent="qopm1GABGxC7yE1gdihB-5">
          <mxGeometry y="78" width="193" height="26" as="geometry" />
        </mxCell>
        <mxCell id="qopm1GABGxC7yE1gdihB-9" value="+&amp;nbsp;&lt;span&gt;select(String, k): CarVO&lt;br&gt;&lt;br&gt;&lt;/span&gt;" style="text;html=1;strokeColor=none;fillColor=none;align=left;verticalAlign=top;spacingLeft=4;spacingRight=4;whiteSpace=wrap;overflow=hidden;rotatable=0;points=[[0,0.5],[1,0.5]];portConstraint=eastwest;" vertex="1" parent="qopm1GABGxC7yE1gdihB-5">
          <mxGeometry y="104" width="193" height="26" as="geometry" />
        </mxCell>
        <mxCell id="qopm1GABGxC7yE1gdihB-10" value="+&amp;nbsp;&lt;span&gt;select():&amp;nbsp;ArrayList&amp;lt;&lt;/span&gt;ManagerVO&lt;span&gt;&amp;gt;&lt;/span&gt;&lt;span&gt;&lt;br&gt;&lt;br&gt;&lt;/span&gt;" style="text;html=1;strokeColor=none;fillColor=none;align=left;verticalAlign=top;spacingLeft=4;spacingRight=4;whiteSpace=wrap;overflow=hidden;rotatable=0;points=[[0,0.5],[1,0.5]];portConstraint=eastwest;" vertex="1" parent="qopm1GABGxC7yE1gdihB-5">
          <mxGeometry y="130" width="193" height="26" as="geometry" />
        </mxCell>
        <mxCell id="qopm1GABGxC7yE1gdihB-29" style="edgeStyle=orthogonalEdgeStyle;rounded=0;orthogonalLoop=1;jettySize=auto;html=1;exitX=0.5;exitY=0;exitDx=0;exitDy=0;entryX=1;entryY=0.5;entryDx=0;entryDy=0;dashed=1;startArrow=none;startFill=0;endArrow=openThin;endFill=0;" edge="1" parent="1" source="qopm1GABGxC7yE1gdihB-11" target="qopm1GABGxC7yE1gdihB-1">
          <mxGeometry relative="1" as="geometry" />
        </mxCell>
        <mxCell id="qopm1GABGxC7yE1gdihB-11" value="ManagerService" style="swimlane;html=1;fontStyle=0;childLayout=stackLayout;horizontal=1;startSize=26;fillColor=none;horizontalStack=0;resizeParent=1;resizeLast=0;collapsible=1;marginBottom=0;swimlaneFillColor=#ffffff;rounded=0;shadow=0;comic=0;labelBackgroundColor=none;strokeWidth=1;fontFamily=Verdana;fontSize=10;align=center;" vertex="1" parent="1">
          <mxGeometry x="888" y="941" width="189" height="160" as="geometry" />
        </mxCell>
        <mxCell id="qopm1GABGxC7yE1gdihB-12" value="+ register(ManagerVO, v): void" style="text;html=1;strokeColor=none;fillColor=none;align=left;verticalAlign=top;spacingLeft=4;spacingRight=4;whiteSpace=wrap;overflow=hidden;rotatable=0;points=[[0,0.5],[1,0.5]];portConstraint=eastwest;" vertex="1" parent="qopm1GABGxC7yE1gdihB-11">
          <mxGeometry y="26" width="189" height="26" as="geometry" />
        </mxCell>
        <mxCell id="qopm1GABGxC7yE1gdihB-13" value="&lt;span&gt;+ remove(String, k):&amp;nbsp;void&lt;/span&gt;" style="text;html=1;strokeColor=none;fillColor=none;align=left;verticalAlign=top;spacingLeft=4;spacingRight=4;whiteSpace=wrap;overflow=hidden;rotatable=0;points=[[0,0.5],[1,0.5]];portConstraint=eastwest;" vertex="1" parent="qopm1GABGxC7yE1gdihB-11">
          <mxGeometry y="52" width="189" height="26" as="geometry" />
        </mxCell>
        <mxCell id="qopm1GABGxC7yE1gdihB-14" value="+&amp;nbsp;modify&lt;span&gt;(&lt;/span&gt;ManagerVO&lt;span&gt;, v):&amp;nbsp;void&lt;/span&gt;" style="text;html=1;strokeColor=none;fillColor=none;align=left;verticalAlign=top;spacingLeft=4;spacingRight=4;whiteSpace=wrap;overflow=hidden;rotatable=0;points=[[0,0.5],[1,0.5]];portConstraint=eastwest;" vertex="1" parent="qopm1GABGxC7yE1gdihB-11">
          <mxGeometry y="78" width="189" height="26" as="geometry" />
        </mxCell>
        <mxCell id="qopm1GABGxC7yE1gdihB-15" value="+&amp;nbsp;get&lt;span&gt;(String, k): CarVO&lt;br&gt;&lt;br&gt;&lt;/span&gt;" style="text;html=1;strokeColor=none;fillColor=none;align=left;verticalAlign=top;spacingLeft=4;spacingRight=4;whiteSpace=wrap;overflow=hidden;rotatable=0;points=[[0,0.5],[1,0.5]];portConstraint=eastwest;" vertex="1" parent="qopm1GABGxC7yE1gdihB-11">
          <mxGeometry y="104" width="189" height="26" as="geometry" />
        </mxCell>
        <mxCell id="qopm1GABGxC7yE1gdihB-16" value="+&amp;nbsp;get&lt;span&gt;():&amp;nbsp;ArrayList&amp;lt;&lt;/span&gt;ManagerVO&lt;span&gt;&amp;gt;&lt;/span&gt;&lt;span&gt;&lt;br&gt;&lt;br&gt;&lt;/span&gt;" style="text;html=1;strokeColor=none;fillColor=none;align=left;verticalAlign=top;spacingLeft=4;spacingRight=4;whiteSpace=wrap;overflow=hidden;rotatable=0;points=[[0,0.5],[1,0.5]];portConstraint=eastwest;" vertex="1" parent="qopm1GABGxC7yE1gdihB-11">
          <mxGeometry y="130" width="189" height="26" as="geometry" />
        </mxCell>
        <mxCell id="qopm1GABGxC7yE1gdihB-17" value="com.manager" style="shape=folder;fontStyle=1;spacingTop=10;tabWidth=40;tabHeight=14;tabPosition=left;html=1;" vertex="1" parent="1">
          <mxGeometry x="590" y="871" width="83" height="50" as="geometry" />
        </mxCell>
        <mxCell id="qopm1GABGxC7yE1gdihB-18" style="edgeStyle=orthogonalEdgeStyle;rounded=0;orthogonalLoop=1;jettySize=auto;html=1;exitX=0.5;exitY=1;exitDx=0;exitDy=0;exitPerimeter=0;startArrow=none;startFill=0;endArrow=none;endFill=0;dashed=1;dashPattern=1 4;entryX=0;entryY=0;entryDx=83;entryDy=32;entryPerimeter=0;" edge="1" parent="1" source="qopm1GABGxC7yE1gdihB-17" target="qopm1GABGxC7yE1gdihB-17">
          <mxGeometry relative="1" as="geometry">
            <mxPoint x="690" y="903" as="targetPoint" />
            <mxPoint x="682" y="691" as="sourcePoint" />
            <Array as="points">
              <mxPoint x="632" y="1120" />
              <mxPoint x="1100" y="1120" />
              <mxPoint x="1100" y="903" />
            </Array>
          </mxGeometry>
        </mxCell>
        <mxCell id="qopm1GABGxC7yE1gdihB-19" style="edgeStyle=orthogonalEdgeStyle;rounded=0;orthogonalLoop=1;jettySize=auto;html=1;exitX=0;exitY=0.5;exitDx=0;exitDy=0;entryX=1;entryY=0.5;entryDx=0;entryDy=0;dashed=1;startArrow=none;startFill=0;endArrow=openThin;endFill=0;" edge="1" parent="1" source="qopm1GABGxC7yE1gdihB-14" target="qopm1GABGxC7yE1gdihB-8">
          <mxGeometry relative="1" as="geometry" />
        </mxCell>
        <mxCell id="qopm1GABGxC7yE1gdihB-21" style="edgeStyle=orthogonalEdgeStyle;rounded=0;orthogonalLoop=1;jettySize=auto;html=1;exitX=0;exitY=0.5;exitDx=0;exitDy=0;entryX=0;entryY=0.75;entryDx=0;entryDy=0;dashed=1;startArrow=none;startFill=0;endArrow=block;endFill=0;" edge="1" parent="1" source="qopm1GABGxC7yE1gdihB-8" target="5d2195bd80daf111-18">
          <mxGeometry relative="1" as="geometry">
            <Array as="points">
              <mxPoint x="580" y="1032" />
              <mxPoint x="580" y="242" />
            </Array>
          </mxGeometry>
        </mxCell>
        <mxCell id="qopm1GABGxC7yE1gdihB-22" value="Text" style="edgeLabel;html=1;align=center;verticalAlign=middle;resizable=0;points=[];" vertex="1" connectable="0" parent="qopm1GABGxC7yE1gdihB-21">
          <mxGeometry x="0.2994" y="1" relative="1" as="geometry">
            <mxPoint as="offset" />
          </mxGeometry>
        </mxCell>
        <mxCell id="qopm1GABGxC7yE1gdihB-26" style="edgeStyle=orthogonalEdgeStyle;rounded=0;orthogonalLoop=1;jettySize=auto;html=1;exitX=1;exitY=0.5;exitDx=0;exitDy=0;entryX=1;entryY=0.75;entryDx=0;entryDy=0;dashed=1;startArrow=none;startFill=0;endArrow=block;endFill=0;" edge="1" parent="1" source="qopm1GABGxC7yE1gdihB-14" target="xKzsLAUPRiaMBI0JEoiN-7">
          <mxGeometry relative="1" as="geometry">
            <Array as="points">
              <mxPoint x="1130" y="1032" />
              <mxPoint x="1130" y="240" />
            </Array>
          </mxGeometry>
        </mxCell>
      </root>
    </mxGraphModel>
  </diagram>
  <diagram id="FmmcPytIZX0mIiOFzug_" name="ERD">
    <mxGraphModel dx="975" dy="564" grid="1" gridSize="10" guides="1" tooltips="1" connect="1" arrows="1" fold="1" page="1" pageScale="1" pageWidth="827" pageHeight="1169" math="0" shadow="0">
      <root>
        <mxCell id="hjZU-590_CObBd01m8GW-0" />
        <mxCell id="hjZU-590_CObBd01m8GW-1" parent="hjZU-590_CObBd01m8GW-0" />
        <mxCell id="diXFjImZvb7iJ3Q3Llgm-11" value="CAR" style="shape=table;startSize=30;container=1;collapsible=1;childLayout=tableLayout;fixedRows=1;rowLines=0;fontStyle=1;align=center;resizeLast=1;" parent="hjZU-590_CObBd01m8GW-1" vertex="1">
          <mxGeometry x="324" y="58" width="180" height="150" as="geometry" />
        </mxCell>
        <mxCell id="diXFjImZvb7iJ3Q3Llgm-12" value="" style="shape=partialRectangle;collapsible=0;dropTarget=0;pointerEvents=0;fillColor=none;top=0;left=0;bottom=1;right=0;points=[[0,0.5],[1,0.5]];portConstraint=eastwest;" parent="diXFjImZvb7iJ3Q3Llgm-11" vertex="1">
          <mxGeometry y="30" width="180" height="30" as="geometry" />
        </mxCell>
        <mxCell id="diXFjImZvb7iJ3Q3Llgm-13" value="PK" style="shape=partialRectangle;connectable=0;fillColor=none;top=0;left=0;bottom=0;right=0;fontStyle=1;overflow=hidden;" parent="diXFjImZvb7iJ3Q3Llgm-12" vertex="1">
          <mxGeometry width="30" height="30" as="geometry">
            <mxRectangle width="30" height="30" as="alternateBounds" />
          </mxGeometry>
        </mxCell>
        <mxCell id="diXFjImZvb7iJ3Q3Llgm-14" value="CAR_NUM" style="shape=partialRectangle;connectable=0;fillColor=none;top=0;left=0;bottom=0;right=0;align=left;spacingLeft=6;fontStyle=5;overflow=hidden;" parent="diXFjImZvb7iJ3Q3Llgm-12" vertex="1">
          <mxGeometry x="30" width="150" height="30" as="geometry">
            <mxRectangle width="150" height="30" as="alternateBounds" />
          </mxGeometry>
        </mxCell>
        <mxCell id="diXFjImZvb7iJ3Q3Llgm-15" value="" style="shape=partialRectangle;collapsible=0;dropTarget=0;pointerEvents=0;fillColor=none;top=0;left=0;bottom=0;right=0;points=[[0,0.5],[1,0.5]];portConstraint=eastwest;" parent="diXFjImZvb7iJ3Q3Llgm-11" vertex="1">
          <mxGeometry y="60" width="180" height="30" as="geometry" />
        </mxCell>
        <mxCell id="diXFjImZvb7iJ3Q3Llgm-16" value="FK" style="shape=partialRectangle;connectable=0;fillColor=none;top=0;left=0;bottom=0;right=0;editable=1;overflow=hidden;fontStyle=1" parent="diXFjImZvb7iJ3Q3Llgm-15" vertex="1">
          <mxGeometry width="30" height="30" as="geometry">
            <mxRectangle width="30" height="30" as="alternateBounds" />
          </mxGeometry>
        </mxCell>
        <mxCell id="diXFjImZvb7iJ3Q3Llgm-17" value="MEM_ID" style="shape=partialRectangle;connectable=0;fillColor=none;top=0;left=0;bottom=0;right=0;align=left;spacingLeft=6;overflow=hidden;" parent="diXFjImZvb7iJ3Q3Llgm-15" vertex="1">
          <mxGeometry x="30" width="150" height="30" as="geometry">
            <mxRectangle width="150" height="30" as="alternateBounds" />
          </mxGeometry>
        </mxCell>
        <mxCell id="diXFjImZvb7iJ3Q3Llgm-18" value="" style="shape=partialRectangle;collapsible=0;dropTarget=0;pointerEvents=0;fillColor=none;top=0;left=0;bottom=0;right=0;points=[[0,0.5],[1,0.5]];portConstraint=eastwest;" parent="diXFjImZvb7iJ3Q3Llgm-11" vertex="1">
          <mxGeometry y="90" width="180" height="30" as="geometry" />
        </mxCell>
        <mxCell id="diXFjImZvb7iJ3Q3Llgm-19" value="" style="shape=partialRectangle;connectable=0;fillColor=none;top=0;left=0;bottom=0;right=0;editable=1;overflow=hidden;" parent="diXFjImZvb7iJ3Q3Llgm-18" vertex="1">
          <mxGeometry width="30" height="30" as="geometry">
            <mxRectangle width="30" height="30" as="alternateBounds" />
          </mxGeometry>
        </mxCell>
        <mxCell id="diXFjImZvb7iJ3Q3Llgm-20" value="IN_TIME" style="shape=partialRectangle;connectable=0;fillColor=none;top=0;left=0;bottom=0;right=0;align=left;spacingLeft=6;overflow=hidden;" parent="diXFjImZvb7iJ3Q3Llgm-18" vertex="1">
          <mxGeometry x="30" width="150" height="30" as="geometry">
            <mxRectangle width="150" height="30" as="alternateBounds" />
          </mxGeometry>
        </mxCell>
        <mxCell id="diXFjImZvb7iJ3Q3Llgm-21" value="" style="shape=partialRectangle;collapsible=0;dropTarget=0;pointerEvents=0;fillColor=none;top=0;left=0;bottom=0;right=0;points=[[0,0.5],[1,0.5]];portConstraint=eastwest;" parent="diXFjImZvb7iJ3Q3Llgm-11" vertex="1">
          <mxGeometry y="120" width="180" height="30" as="geometry" />
        </mxCell>
        <mxCell id="diXFjImZvb7iJ3Q3Llgm-22" value="" style="shape=partialRectangle;connectable=0;fillColor=none;top=0;left=0;bottom=0;right=0;editable=1;overflow=hidden;" parent="diXFjImZvb7iJ3Q3Llgm-21" vertex="1">
          <mxGeometry width="30" height="30" as="geometry">
            <mxRectangle width="30" height="30" as="alternateBounds" />
          </mxGeometry>
        </mxCell>
        <mxCell id="diXFjImZvb7iJ3Q3Llgm-23" value="OUT_TIME" style="shape=partialRectangle;connectable=0;fillColor=none;top=0;left=0;bottom=0;right=0;align=left;spacingLeft=6;overflow=hidden;" parent="diXFjImZvb7iJ3Q3Llgm-21" vertex="1">
          <mxGeometry x="30" width="150" height="30" as="geometry">
            <mxRectangle width="150" height="30" as="alternateBounds" />
          </mxGeometry>
        </mxCell>
        <mxCell id="diXFjImZvb7iJ3Q3Llgm-24" value="MEMBER" style="shape=table;startSize=30;container=1;collapsible=1;childLayout=tableLayout;fixedRows=1;rowLines=0;fontStyle=1;align=center;resizeLast=1;" parent="hjZU-590_CObBd01m8GW-1" vertex="1">
          <mxGeometry x="58" y="88" width="180" height="180" as="geometry" />
        </mxCell>
        <mxCell id="diXFjImZvb7iJ3Q3Llgm-25" value="" style="shape=partialRectangle;collapsible=0;dropTarget=0;pointerEvents=0;fillColor=none;top=0;left=0;bottom=1;right=0;points=[[0,0.5],[1,0.5]];portConstraint=eastwest;" parent="diXFjImZvb7iJ3Q3Llgm-24" vertex="1">
          <mxGeometry y="30" width="180" height="30" as="geometry" />
        </mxCell>
        <mxCell id="diXFjImZvb7iJ3Q3Llgm-26" value="PK" style="shape=partialRectangle;connectable=0;fillColor=none;top=0;left=0;bottom=0;right=0;fontStyle=1;overflow=hidden;" parent="diXFjImZvb7iJ3Q3Llgm-25" vertex="1">
          <mxGeometry width="30" height="30" as="geometry">
            <mxRectangle width="30" height="30" as="alternateBounds" />
          </mxGeometry>
        </mxCell>
        <mxCell id="diXFjImZvb7iJ3Q3Llgm-27" value="MEM_ID" style="shape=partialRectangle;connectable=0;fillColor=none;top=0;left=0;bottom=0;right=0;align=left;spacingLeft=6;fontStyle=5;overflow=hidden;" parent="diXFjImZvb7iJ3Q3Llgm-25" vertex="1">
          <mxGeometry x="30" width="150" height="30" as="geometry">
            <mxRectangle width="150" height="30" as="alternateBounds" />
          </mxGeometry>
        </mxCell>
        <mxCell id="diXFjImZvb7iJ3Q3Llgm-28" value="" style="shape=partialRectangle;collapsible=0;dropTarget=0;pointerEvents=0;fillColor=none;top=0;left=0;bottom=0;right=0;points=[[0,0.5],[1,0.5]];portConstraint=eastwest;" parent="diXFjImZvb7iJ3Q3Llgm-24" vertex="1">
          <mxGeometry y="60" width="180" height="30" as="geometry" />
        </mxCell>
        <mxCell id="diXFjImZvb7iJ3Q3Llgm-29" value="" style="shape=partialRectangle;connectable=0;fillColor=none;top=0;left=0;bottom=0;right=0;editable=1;overflow=hidden;" parent="diXFjImZvb7iJ3Q3Llgm-28" vertex="1">
          <mxGeometry width="30" height="30" as="geometry">
            <mxRectangle width="30" height="30" as="alternateBounds" />
          </mxGeometry>
        </mxCell>
        <mxCell id="diXFjImZvb7iJ3Q3Llgm-30" value="MEM_PWD" style="shape=partialRectangle;connectable=0;fillColor=none;top=0;left=0;bottom=0;right=0;align=left;spacingLeft=6;overflow=hidden;" parent="diXFjImZvb7iJ3Q3Llgm-28" vertex="1">
          <mxGeometry x="30" width="150" height="30" as="geometry">
            <mxRectangle width="150" height="30" as="alternateBounds" />
          </mxGeometry>
        </mxCell>
        <mxCell id="diXFjImZvb7iJ3Q3Llgm-31" value="" style="shape=partialRectangle;collapsible=0;dropTarget=0;pointerEvents=0;fillColor=none;top=0;left=0;bottom=0;right=0;points=[[0,0.5],[1,0.5]];portConstraint=eastwest;" parent="diXFjImZvb7iJ3Q3Llgm-24" vertex="1">
          <mxGeometry y="90" width="180" height="30" as="geometry" />
        </mxCell>
        <mxCell id="diXFjImZvb7iJ3Q3Llgm-32" value="" style="shape=partialRectangle;connectable=0;fillColor=none;top=0;left=0;bottom=0;right=0;editable=1;overflow=hidden;" parent="diXFjImZvb7iJ3Q3Llgm-31" vertex="1">
          <mxGeometry width="30" height="30" as="geometry">
            <mxRectangle width="30" height="30" as="alternateBounds" />
          </mxGeometry>
        </mxCell>
        <mxCell id="diXFjImZvb7iJ3Q3Llgm-33" value="MEM_NAME" style="shape=partialRectangle;connectable=0;fillColor=none;top=0;left=0;bottom=0;right=0;align=left;spacingLeft=6;overflow=hidden;" parent="diXFjImZvb7iJ3Q3Llgm-31" vertex="1">
          <mxGeometry x="30" width="150" height="30" as="geometry">
            <mxRectangle width="150" height="30" as="alternateBounds" />
          </mxGeometry>
        </mxCell>
        <mxCell id="diXFjImZvb7iJ3Q3Llgm-34" value="" style="shape=partialRectangle;collapsible=0;dropTarget=0;pointerEvents=0;fillColor=none;top=0;left=0;bottom=0;right=0;points=[[0,0.5],[1,0.5]];portConstraint=eastwest;" parent="diXFjImZvb7iJ3Q3Llgm-24" vertex="1">
          <mxGeometry y="120" width="180" height="30" as="geometry" />
        </mxCell>
        <mxCell id="diXFjImZvb7iJ3Q3Llgm-35" value="" style="shape=partialRectangle;connectable=0;fillColor=none;top=0;left=0;bottom=0;right=0;editable=1;overflow=hidden;" parent="diXFjImZvb7iJ3Q3Llgm-34" vertex="1">
          <mxGeometry width="30" height="30" as="geometry">
            <mxRectangle width="30" height="30" as="alternateBounds" />
          </mxGeometry>
        </mxCell>
        <mxCell id="diXFjImZvb7iJ3Q3Llgm-36" value="MEM_TEL" style="shape=partialRectangle;connectable=0;fillColor=none;top=0;left=0;bottom=0;right=0;align=left;spacingLeft=6;overflow=hidden;" parent="diXFjImZvb7iJ3Q3Llgm-34" vertex="1">
          <mxGeometry x="30" width="150" height="30" as="geometry">
            <mxRectangle width="150" height="30" as="alternateBounds" />
          </mxGeometry>
        </mxCell>
        <mxCell id="8_oxX0UnCp5y3laQ4UIz-24" value="" style="shape=partialRectangle;collapsible=0;dropTarget=0;pointerEvents=0;fillColor=none;top=0;left=0;bottom=0;right=0;points=[[0,0.5],[1,0.5]];portConstraint=eastwest;" vertex="1" parent="diXFjImZvb7iJ3Q3Llgm-24">
          <mxGeometry y="150" width="180" height="30" as="geometry" />
        </mxCell>
        <mxCell id="8_oxX0UnCp5y3laQ4UIz-25" value="" style="shape=partialRectangle;connectable=0;fillColor=none;top=0;left=0;bottom=0;right=0;editable=1;overflow=hidden;" vertex="1" parent="8_oxX0UnCp5y3laQ4UIz-24">
          <mxGeometry width="30" height="30" as="geometry">
            <mxRectangle width="30" height="30" as="alternateBounds" />
          </mxGeometry>
        </mxCell>
        <mxCell id="8_oxX0UnCp5y3laQ4UIz-26" value="MEM_MONEY" style="shape=partialRectangle;connectable=0;fillColor=none;top=0;left=0;bottom=0;right=0;align=left;spacingLeft=6;overflow=hidden;" vertex="1" parent="8_oxX0UnCp5y3laQ4UIz-24">
          <mxGeometry x="30" width="150" height="30" as="geometry">
            <mxRectangle width="150" height="30" as="alternateBounds" />
          </mxGeometry>
        </mxCell>
        <mxCell id="8_oxX0UnCp5y3laQ4UIz-0" value="Manager" style="shape=table;startSize=30;container=1;collapsible=1;childLayout=tableLayout;fixedRows=1;rowLines=0;fontStyle=1;align=center;resizeLast=1;" vertex="1" parent="hjZU-590_CObBd01m8GW-1">
          <mxGeometry x="58" y="360" width="180" height="160" as="geometry" />
        </mxCell>
        <mxCell id="8_oxX0UnCp5y3laQ4UIz-1" value="" style="shape=partialRectangle;collapsible=0;dropTarget=0;pointerEvents=0;fillColor=none;top=0;left=0;bottom=1;right=0;points=[[0,0.5],[1,0.5]];portConstraint=eastwest;" vertex="1" parent="8_oxX0UnCp5y3laQ4UIz-0">
          <mxGeometry y="30" width="180" height="30" as="geometry" />
        </mxCell>
        <mxCell id="8_oxX0UnCp5y3laQ4UIz-2" value="PK" style="shape=partialRectangle;connectable=0;fillColor=none;top=0;left=0;bottom=0;right=0;fontStyle=1;overflow=hidden;" vertex="1" parent="8_oxX0UnCp5y3laQ4UIz-1">
          <mxGeometry width="30" height="30" as="geometry">
            <mxRectangle width="30" height="30" as="alternateBounds" />
          </mxGeometry>
        </mxCell>
        <mxCell id="8_oxX0UnCp5y3laQ4UIz-3" value="MGR_ID" style="shape=partialRectangle;connectable=0;fillColor=none;top=0;left=0;bottom=0;right=0;align=left;spacingLeft=6;fontStyle=5;overflow=hidden;" vertex="1" parent="8_oxX0UnCp5y3laQ4UIz-1">
          <mxGeometry x="30" width="150" height="30" as="geometry">
            <mxRectangle width="150" height="30" as="alternateBounds" />
          </mxGeometry>
        </mxCell>
        <mxCell id="8_oxX0UnCp5y3laQ4UIz-4" value="" style="shape=partialRectangle;collapsible=0;dropTarget=0;pointerEvents=0;fillColor=none;top=0;left=0;bottom=0;right=0;points=[[0,0.5],[1,0.5]];portConstraint=eastwest;" vertex="1" parent="8_oxX0UnCp5y3laQ4UIz-0">
          <mxGeometry y="60" width="180" height="30" as="geometry" />
        </mxCell>
        <mxCell id="8_oxX0UnCp5y3laQ4UIz-5" value="" style="shape=partialRectangle;connectable=0;fillColor=none;top=0;left=0;bottom=0;right=0;editable=1;overflow=hidden;" vertex="1" parent="8_oxX0UnCp5y3laQ4UIz-4">
          <mxGeometry width="30" height="30" as="geometry">
            <mxRectangle width="30" height="30" as="alternateBounds" />
          </mxGeometry>
        </mxCell>
        <mxCell id="8_oxX0UnCp5y3laQ4UIz-6" value="MGR_PWD" style="shape=partialRectangle;connectable=0;fillColor=none;top=0;left=0;bottom=0;right=0;align=left;spacingLeft=6;overflow=hidden;" vertex="1" parent="8_oxX0UnCp5y3laQ4UIz-4">
          <mxGeometry x="30" width="150" height="30" as="geometry">
            <mxRectangle width="150" height="30" as="alternateBounds" />
          </mxGeometry>
        </mxCell>
        <mxCell id="8_oxX0UnCp5y3laQ4UIz-7" value="" style="shape=partialRectangle;collapsible=0;dropTarget=0;pointerEvents=0;fillColor=none;top=0;left=0;bottom=0;right=0;points=[[0,0.5],[1,0.5]];portConstraint=eastwest;" vertex="1" parent="8_oxX0UnCp5y3laQ4UIz-0">
          <mxGeometry y="90" width="180" height="30" as="geometry" />
        </mxCell>
        <mxCell id="8_oxX0UnCp5y3laQ4UIz-8" value="" style="shape=partialRectangle;connectable=0;fillColor=none;top=0;left=0;bottom=0;right=0;editable=1;overflow=hidden;" vertex="1" parent="8_oxX0UnCp5y3laQ4UIz-7">
          <mxGeometry width="30" height="30" as="geometry">
            <mxRectangle width="30" height="30" as="alternateBounds" />
          </mxGeometry>
        </mxCell>
        <mxCell id="8_oxX0UnCp5y3laQ4UIz-9" value="MGR_NAME" style="shape=partialRectangle;connectable=0;fillColor=none;top=0;left=0;bottom=0;right=0;align=left;spacingLeft=6;overflow=hidden;" vertex="1" parent="8_oxX0UnCp5y3laQ4UIz-7">
          <mxGeometry x="30" width="150" height="30" as="geometry">
            <mxRectangle width="150" height="30" as="alternateBounds" />
          </mxGeometry>
        </mxCell>
        <mxCell id="8_oxX0UnCp5y3laQ4UIz-10" value="" style="shape=partialRectangle;collapsible=0;dropTarget=0;pointerEvents=0;fillColor=none;top=0;left=0;bottom=0;right=0;points=[[0,0.5],[1,0.5]];portConstraint=eastwest;" vertex="1" parent="8_oxX0UnCp5y3laQ4UIz-0">
          <mxGeometry y="120" width="180" height="30" as="geometry" />
        </mxCell>
        <mxCell id="8_oxX0UnCp5y3laQ4UIz-11" value="" style="shape=partialRectangle;connectable=0;fillColor=none;top=0;left=0;bottom=0;right=0;editable=1;overflow=hidden;" vertex="1" parent="8_oxX0UnCp5y3laQ4UIz-10">
          <mxGeometry width="30" height="30" as="geometry">
            <mxRectangle width="30" height="30" as="alternateBounds" />
          </mxGeometry>
        </mxCell>
        <mxCell id="8_oxX0UnCp5y3laQ4UIz-12" value="MGR_TEL" style="shape=partialRectangle;connectable=0;fillColor=none;top=0;left=0;bottom=0;right=0;align=left;spacingLeft=6;overflow=hidden;" vertex="1" parent="8_oxX0UnCp5y3laQ4UIz-10">
          <mxGeometry x="30" width="150" height="30" as="geometry">
            <mxRectangle width="150" height="30" as="alternateBounds" />
          </mxGeometry>
        </mxCell>
        <mxCell id="8_oxX0UnCp5y3laQ4UIz-34" value="" style="edgeStyle=orthogonalEdgeStyle;fontSize=12;html=1;endArrow=ERzeroToMany;startArrow=ERone;rounded=0;dashed=1;exitX=1;exitY=0.5;exitDx=0;exitDy=0;startFill=0;entryX=0;entryY=0.5;entryDx=0;entryDy=0;" edge="1" parent="hjZU-590_CObBd01m8GW-1" source="diXFjImZvb7iJ3Q3Llgm-25" target="diXFjImZvb7iJ3Q3Llgm-15">
          <mxGeometry width="100" height="100" relative="1" as="geometry">
            <mxPoint x="224" y="230" as="sourcePoint" />
            <mxPoint x="324" y="130" as="targetPoint" />
          </mxGeometry>
        </mxCell>
      </root>
    </mxGraphModel>
  </diagram>
  <diagram id="MXD6gXz3BYAJi_EEF-k3" name="Page-3">
    <mxGraphModel dx="1773" dy="1089" grid="1" gridSize="10" guides="1" tooltips="1" connect="1" arrows="1" fold="1" page="1" pageScale="1" pageWidth="827" pageHeight="1169" math="0" shadow="0">
      <root>
        <mxCell id="cutJxACWDABlsYOqYp7W-0" />
        <mxCell id="cutJxACWDABlsYOqYp7W-1" parent="cutJxACWDABlsYOqYp7W-0" />
        <mxCell id="GdsYU5n0VBgSAm-2USyF-0" value="&lt;b&gt;User&lt;/b&gt;" style="shape=umlActor;verticalLabelPosition=bottom;verticalAlign=top;html=1;" vertex="1" parent="cutJxACWDABlsYOqYp7W-1">
          <mxGeometry x="120" y="420" width="40" height="80" as="geometry" />
        </mxCell>
        <mxCell id="GdsYU5n0VBgSAm-2USyF-1" value="&lt;b&gt;Manager&lt;/b&gt;" style="shape=umlActor;verticalLabelPosition=bottom;verticalAlign=top;html=1;" vertex="1" parent="cutJxACWDABlsYOqYp7W-1">
          <mxGeometry x="120" y="140" width="40" height="80" as="geometry" />
        </mxCell>
        <mxCell id="GdsYU5n0VBgSAm-2USyF-6" value="&lt;b&gt;AWS&lt;/b&gt;" style="shape=umlFrame;whiteSpace=wrap;html=1;" vertex="1" parent="cutJxACWDABlsYOqYp7W-1">
          <mxGeometry x="640" y="40" width="760" height="520" as="geometry" />
        </mxCell>
        <mxCell id="GdsYU5n0VBgSAm-2USyF-7" value="&lt;b&gt;Web Server&lt;/b&gt;" style="shape=umlFrame;whiteSpace=wrap;html=1;" vertex="1" parent="cutJxACWDABlsYOqYp7W-1">
          <mxGeometry x="680" y="80" width="320" height="200" as="geometry" />
        </mxCell>
        <mxCell id="GdsYU5n0VBgSAm-2USyF-8" value="&lt;b&gt;MQTT&lt;/b&gt;" style="shape=umlFrame;whiteSpace=wrap;html=1;" vertex="1" parent="cutJxACWDABlsYOqYp7W-1">
          <mxGeometry x="680" y="320" width="320" height="200" as="geometry" />
        </mxCell>
        <mxCell id="GdsYU5n0VBgSAm-2USyF-10" value="&lt;b&gt;DB&lt;/b&gt;" style="shape=umlFrame;whiteSpace=wrap;html=1;" vertex="1" parent="cutJxACWDABlsYOqYp7W-1">
          <mxGeometry x="1040" y="80" width="320" height="200" as="geometry" />
        </mxCell>
        <mxCell id="GdsYU5n0VBgSAm-2USyF-11" value="&lt;b&gt;Hadoop&lt;/b&gt;" style="shape=umlFrame;whiteSpace=wrap;html=1;" vertex="1" parent="cutJxACWDABlsYOqYp7W-1">
          <mxGeometry x="1040" y="320" width="320" height="200" as="geometry" />
        </mxCell>
        <mxCell id="GdsYU5n0VBgSAm-2USyF-12" value="&lt;b&gt;Web&lt;br&gt;Browser&lt;/b&gt;" style="shape=umlFrame;whiteSpace=wrap;html=1;" vertex="1" parent="cutJxACWDABlsYOqYp7W-1">
          <mxGeometry x="280" y="80" width="320" height="200" as="geometry" />
        </mxCell>
        <mxCell id="GdsYU5n0VBgSAm-2USyF-14" value="&lt;b&gt;Use Case&lt;/b&gt;" style="ellipse;whiteSpace=wrap;html=1;" vertex="1" parent="cutJxACWDABlsYOqYp7W-1">
          <mxGeometry x="300" y="120" width="86" height="50" as="geometry" />
        </mxCell>
        <mxCell id="GdsYU5n0VBgSAm-2USyF-16" value="&lt;b&gt;App&lt;/b&gt;" style="shape=umlFrame;whiteSpace=wrap;html=1;" vertex="1" parent="cutJxACWDABlsYOqYp7W-1">
          <mxGeometry x="280" y="360" width="320" height="200" as="geometry" />
        </mxCell>
        <mxCell id="GdsYU5n0VBgSAm-2USyF-19" value="&lt;b&gt;Use Case&lt;/b&gt;" style="ellipse;whiteSpace=wrap;html=1;" vertex="1" parent="cutJxACWDABlsYOqYp7W-1">
          <mxGeometry x="300" y="400" width="86" height="50" as="geometry" />
        </mxCell>
        <mxCell id="GdsYU5n0VBgSAm-2USyF-21" value="&lt;b&gt;Latte Panda&lt;/b&gt;" style="shape=umlFrame;whiteSpace=wrap;html=1;" vertex="1" parent="cutJxACWDABlsYOqYp7W-1">
          <mxGeometry x="640" y="600" width="760" height="360" as="geometry" />
        </mxCell>
        <mxCell id="GdsYU5n0VBgSAm-2USyF-22" value="&lt;b&gt;Arduino&lt;/b&gt;" style="shape=umlFrame;whiteSpace=wrap;html=1;" vertex="1" parent="cutJxACWDABlsYOqYp7W-1">
          <mxGeometry x="1040" y="640" width="320" height="280" as="geometry" />
        </mxCell>
      </root>
    </mxGraphModel>
  </diagram>
</mxfile>
